<svg width="196" height="53" viewBox="0 0 196 53" fill="none" xmlns="http://www.w3.org/2000/svg">
<path d="M60.152 26V17.104H57.08V14.8H65.816V17.104H62.728V26H60.152ZM73.0083 26L72.6243 24.64H68.6563L68.2723 26H65.5363L69.3283 14.8H71.9363L75.7443 26H73.0083ZM69.2323 22.608H72.0483L70.6403 17.632L69.2323 22.608ZM77.7155 26V14.8H80.3075V23.696H84.4675V26H77.7155ZM96.2486 14.8L91.8486 20.352L96.2486 26H93.1606L89.4806 21.056V26H86.8886V14.8H89.4806V19.776L93.1766 14.8H96.2486ZM109.019 20.24V23.38H107.599V26H104.039V23.38H97.5988V20.22L102.119 11.64H107.599V20.24H109.019ZM100.779 20.24H104.039V13.98L100.779 20.24ZM111.489 26V14.8H118.337V16.88H114.081V19.424H118.337V21.456H114.081V23.92H118.337V26H111.489ZM123.724 26L119.964 14.8H122.748L125.068 22.704L127.388 14.8H130.172L126.412 26H123.724ZM131.929 26V14.8H138.777V16.88H134.521V19.424H138.777V21.456H134.521V23.92H138.777V26H131.929ZM150.324 18.848C150.324 19.6587 150.137 20.384 149.764 21.024C149.39 21.6533 148.878 22.128 148.228 22.448L150.196 26H147.252L145.492 22.896H144.132V26H141.54V14.8H146.308C147.47 14.8 148.43 15.184 149.188 15.952C149.945 16.7093 150.324 17.6747 150.324 18.848ZM144.132 16.912V20.784H145.908C146.43 20.784 146.857 20.6027 147.188 20.24C147.529 19.8773 147.7 19.4133 147.7 18.848C147.7 18.2827 147.529 17.8187 147.188 17.456C146.857 17.0933 146.43 16.912 145.908 16.912H144.132ZM158.342 14.8H161.206L155.654 26H152.774L154.854 21.776L150.886 14.8H153.894L156.278 19.216L158.342 14.8ZM171.785 24.608C170.697 25.7493 169.246 26.32 167.433 26.32C165.619 26.32 164.169 25.7493 163.081 24.608C161.993 23.456 161.449 22.0533 161.449 20.4C161.449 18.7467 161.993 17.3493 163.081 16.208C164.169 15.056 165.619 14.48 167.433 14.48C169.246 14.48 170.697 15.056 171.785 16.208C172.873 17.3493 173.417 18.7467 173.417 20.4C173.417 22.0533 172.873 23.456 171.785 24.608ZM167.433 24C168.457 24 169.257 23.6587 169.833 22.976C170.419 22.2827 170.713 21.424 170.713 20.4C170.713 19.376 170.419 18.5227 169.833 17.84C169.257 17.1467 168.457 16.8 167.433 16.8C166.398 16.8 165.587 17.1467 165.001 17.84C164.425 18.5227 164.142 19.376 164.153 20.4C164.142 21.424 164.425 22.2827 165.001 22.976C165.587 23.6587 166.398 24 167.433 24ZM175.637 26V14.8H178.293L182.181 22.048V14.8H184.661V26H182.005L178.117 18.752V26H175.637ZM187.56 26V14.8H194.408V16.88H190.152V19.424H194.408V21.456H190.152V23.92H194.408V26H187.56Z" fill="#FD026F"/>
<path d="M6.27398 42.7809C6.7875 43.3814 7.32924 43.9574 7.89738 44.5068C9.81244 46.3858 12.0962 47.9651 14.5461 49.1596C15.4488 49.5809 16.2814 50.0175 17.2569 50.3933C17.5006 50.4866 17.7497 50.5865 18.0114 50.6766C18.2754 50.7599 18.549 50.8433 18.8351 50.9259C19.1196 51.0145 19.4229 51.0775 19.74 51.1429C20.0575 51.2064 20.3871 51.279 20.7411 51.3152C18.985 50.9462 17.2734 50.3917 15.6352 49.6613C13.9867 48.92 12.4204 48.0092 10.9616 46.9438C8.04002 44.8103 5.54109 42.071 3.71577 38.9396C3.64043 38.846 3.52604 38.6676 3.38893 38.4404L3.16845 38.0682L2.94604 37.6399C2.79813 37.3428 2.62778 37.0413 2.49732 36.7492C2.38034 36.4937 2.25789 36.2407 2.13004 35.9904C2.6973 37.3989 3.35209 38.6309 4.08526 39.8024C4.42298 40.3397 4.78043 40.8644 5.15691 41.3754C5.10373 41.3039 5.04833 41.2343 4.99543 41.1626C5.39887 41.7165 5.8239 42.2545 6.26955 42.7753L6.27398 42.7809ZM0.368158 29.2795L0.234375 28.2096C0.305283 28.8626 0.387546 29.5924 0.537948 30.323L0.447375 29.8041C0.413943 29.6304 0.387516 29.4554 0.368158 29.2795ZM23.7668 51.2395C25.6093 51.4254 27.5415 51.3699 29.4342 51.0714C31.3279 50.774 33.1801 50.2466 34.9021 49.5669C31.7306 50.8102 28.3647 51.3632 25.072 51.2707C24.6313 51.2638 24.197 51.2707 23.7668 51.2395Z" fill="#FD026F"/>
<path d="M12.8608 47.4821L12.7891 47.4366C12.8132 47.4518 12.8367 47.4672 12.8608 47.4821ZM15.534 48.9502C17.0522 49.6544 18.6424 50.1928 20.2767 50.5561C17.5933 49.9459 15.0681 48.8693 12.8608 47.4821C13.7084 48.0197 14.5994 48.5173 15.534 48.9502ZM49.0281 29.5699C49.0552 29.1337 49.1101 28.6759 49.1239 28.458C49.2885 27.0579 49.3372 25.8623 49.3303 24.6629C49.2998 24.4467 49.2126 24.0416 49.1779 23.5811C49.1356 23.1194 49.0732 22.6674 49.0206 22.2215C48.9406 21.7794 48.8716 21.3418 48.7841 20.9127C49.4142 24.1203 49.4037 27.3403 48.824 30.3784C48.8877 30.1078 48.9557 29.8383 49.0281 29.5699Z" fill="#FD026F"/>
<path d="M0.24578 23.0504C0.480661 21.1453 0.980615 19.2881 1.45619 18.0509L1.26369 18.9565C1.38252 18.6912 1.57447 18.0746 1.83621 17.4222L2.02512 16.9246L2.23368 16.4422C2.37218 16.13 2.48851 15.834 2.61121 15.607C2.52729 15.8199 2.44641 16.0493 2.34891 16.2796C2.25335 16.5107 2.14616 16.7454 2.04395 16.9815L2.4633 16.0402C2.04018 17.0968 1.67595 18.176 1.37227 19.2727C1.05845 20.4743 0.810271 21.7372 0.676765 22.871C0.637988 23.1537 0.624415 23.4298 0.59921 23.6932C0.580652 23.9566 0.548522 24.2079 0.546029 24.4453C0.534396 24.92 0.518331 25.3355 0.526364 25.668C0.555447 26.3331 0.595609 26.6647 0.653499 26.4795C0.767338 26.1114 0.765123 24.2187 1.16232 21.8499C1.37476 20.6692 1.67972 19.3743 2.09353 18.1055C2.5043 16.8357 3.04275 15.6045 3.60032 14.5183L3.43634 14.875L3.28539 15.2425L2.97628 15.9855L2.69264 16.7531L2.54834 17.1402C2.50596 17.2717 2.46303 17.4037 2.42065 17.5362C2.05503 18.5874 1.78165 19.6943 1.54344 20.8101L1.38861 21.6527C1.33183 21.9327 1.30773 22.2177 1.26563 22.4996C1.17755 23.0631 1.14542 23.6308 1.09639 24.1919C1.04127 25.3168 1.03019 26.4278 1.1324 27.4903C1.12825 27.2379 1.12409 27.0137 1.12769 26.7967L1.15955 26.1465C1.17284 25.9231 1.17035 25.6862 1.1914 25.4148C1.21079 25.1434 1.22851 24.8374 1.24403 24.4754C1.35233 22.6509 1.67944 20.8446 2.18798 19.0965C2.6727 17.341 3.24439 15.795 4.09612 14.3943L4.31798 13.973C4.4681 13.6902 4.59302 13.4114 4.75173 13.127C4.9326 12.815 5.10572 12.5814 5.24587 12.3674C5.39018 12.1556 5.51261 11.9695 5.65276 11.7889L6.67261 10.3857C6.69338 10.3832 6.66651 10.4368 6.61721 10.5163C6.78536 10.2775 6.9665 10.0479 7.15982 9.8288C7.36894 9.58721 7.57197 9.33097 7.74398 9.11947C7.78442 9.11754 7.82375 9.11644 7.91654 9.05017C10.3124 6.51077 13.2609 4.44131 16.5836 3.13668L17.3223 2.8498L18.0702 2.60157L18.4422 2.47788L18.8189 2.37295L19.5695 2.16504C19.9988 2.06205 20.4337 1.95768 20.8771 1.8638L21.5521 1.74618C21.779 1.70725 22.0069 1.66335 22.2401 1.64181C22.7038 1.58631 23.1082 1.46924 23.3262 1.44052C24.5363 1.37177 25.7442 1.38558 27.1621 1.50016C27.2721 1.5021 27.4433 1.51204 27.6419 1.52281C27.8405 1.53413 28.0676 1.53965 28.2878 1.5598C28.5459 1.61779 28.8215 1.67522 29.1107 1.73127C30.8748 2.00407 32.5805 2.49168 34.2033 3.14027L34.2014 3.13254L34.8229 3.37938L35.4572 3.67151C35.8923 3.86037 36.3186 4.10197 36.759 4.32948C36.9801 4.44186 37.1894 4.57909 37.4066 4.70334C37.6199 4.83422 37.8431 4.95018 38.0492 5.09321C38.4669 5.36987 38.8904 5.63466 39.2807 5.93038C39.9099 6.38303 40.5198 6.86186 41.1088 7.36561C41.1215 7.37721 41.1348 7.38798 41.1475 7.3993L41.1592 7.40979L41.5627 7.77481L41.9488 8.15888L42.3352 8.54323C42.4632 8.67217 42.5817 8.81023 42.7056 8.94331C42.6457 8.84667 42.6479 8.80774 42.6502 8.76936C42.4593 8.58713 42.2336 8.37149 42.0106 8.15916C42.3826 8.49656 42.7072 8.80167 42.9737 9.05072C43.0764 9.1816 43.1886 9.31027 43.295 9.45081L43.6235 9.8832L43.9728 10.333L44.3204 10.8167C44.9369 11.6003 45.4812 12.4386 45.998 13.2935C46.2374 13.7319 46.5013 14.158 46.7143 14.6116L47.0503 15.2842L47.3528 15.9737C47.4397 16.1208 47.406 15.9798 47.4168 15.9549C47.7561 16.7727 48.0289 17.6232 48.276 18.4802C48.7482 20.0291 49.0645 21.621 49.2199 23.2324C49.2822 23.6129 49.3088 23.9978 49.3639 24.3791L49.3299 25.1864C49.3296 25.491 49.3457 25.7955 49.3326 26.1006L49.2972 27.019C49.2928 27.2261 49.2628 27.4522 49.2454 27.6979C49.2221 27.9431 49.2099 28.2076 49.1745 28.4865L49.0604 29.3679C49.0238 29.6768 48.9532 29.9944 48.8989 30.3263C48.6285 31.7836 48.2289 33.2142 47.7045 34.601C47.6375 34.8291 47.5863 35.0113 47.5406 35.1132C47.3669 35.5277 47.1816 35.9288 47.0027 36.324C46.8024 36.7089 46.6188 37.0938 46.4135 37.4582C45.7788 38.6581 45.0422 39.8016 44.2118 40.8762C44.1187 40.9974 44.032 41.1206 43.9384 41.2343L43.662 41.5673C43.4792 41.7824 43.3157 41.9975 43.1424 42.1842C42.7959 42.5575 42.505 42.9037 42.2322 43.1641C41.9198 43.4893 41.9477 43.5045 42.1641 43.3477C42.3159 43.2359 42.4644 43.1197 42.6094 42.9992L43.1972 42.4708C43.4121 42.2838 43.6179 42.0729 43.8163 41.8741C44.0124 41.6739 44.2085 41.4914 44.3597 41.3263C44.6647 40.9974 44.8649 40.7945 44.8223 40.8848C44.3301 41.8084 43.4337 42.9476 42.1236 44.2078C41.4553 44.8227 40.7032 45.4909 39.8139 46.135C39.3801 46.4722 38.8979 46.7806 38.4062 47.1174C37.8982 47.4275 37.3792 47.7671 36.8116 48.0687C35.5697 48.7429 37.7437 47.6614 37.8024 47.6512C37.5927 47.8158 37.3728 47.967 37.144 48.104C36.7346 48.321 36.3289 48.5449 35.9048 48.7316C35.6569 48.8451 35.4134 48.9677 35.1628 49.0737L34.4069 49.3835L34.8068 49.2267C35.6245 48.9028 36.3887 48.5212 37.0787 48.1438C36.8194 48.3 36.5358 48.4809 36.225 48.6441C35.8918 48.8158 35.5469 49.0036 35.201 49.1712L34.1969 49.6367C37.7888 48.3359 41.0896 46.1834 43.7027 43.3772C45.0109 41.9785 46.1775 40.4419 47.1287 38.7797C48.0858 37.1209 48.8557 35.3616 49.4243 33.5338C48.5507 36.2756 47.1888 38.7943 45.5518 40.924C48.5277 36.9184 50.3021 32.0075 50.5372 26.9428C50.537 27.2219 50.5093 27.5 50.4907 27.778C50.4677 28.0561 50.4566 28.3352 50.424 28.6124C50.3528 29.166 50.3018 29.7227 50.1949 30.2716C50.0221 31.376 49.7417 32.4614 49.4243 33.5338C50.0509 31.5953 50.4251 29.5512 50.5724 27.4956C50.7259 25.4382 50.5979 23.3685 50.2796 21.3628C50.8264 24.0196 50.917 27.0298 50.4511 30.0046C50.7785 28.0859 50.8616 26.1081 50.7358 24.1471C50.7076 23.3981 50.619 22.6542 50.5461 21.9656C50.4417 21.2819 50.3627 20.6507 50.2616 20.1402C50.6619 22.0249 50.8198 23.6325 50.8968 25.1478C50.8228 21.8408 50.1356 18.4902 48.7862 15.3428C49.5227 17.0522 50.1273 18.8911 50.4965 20.7816C50.8677 22.6702 51.022 24.6025 50.9342 26.4612C50.93 26.2437 50.9391 26.0264 50.9264 25.808L50.8968 25.1478C50.9763 28.1436 50.5134 31.1129 49.5961 33.9052C49.1357 35.3012 48.5671 36.6578 47.8788 37.9486C47.1918 39.2374 46.3988 40.4672 45.5078 41.6253C46.5251 40.4408 47.5993 38.7664 48.4565 36.9273C49.3099 35.0842 49.9434 33.091 50.3791 31.3501C49.7381 34.4762 48.466 37.5609 46.6202 40.3157C44.7793 43.0727 42.3682 45.4967 39.5784 47.3571C36.792 49.2234 33.6305 50.515 30.3862 51.1531C28.7753 51.472 27.1378 51.6392 25.4955 51.6526C23.8831 51.6612 22.2734 51.5211 20.6868 51.2343L21.5192 51.3919C21.7967 51.4444 22.0781 51.4734 22.3573 51.5148C22.9157 51.6043 23.4805 51.638 24.0433 51.6896C25.1714 51.7528 26.3057 51.7741 27.4363 51.6882C28.5689 51.6283 29.6943 51.4599 30.8144 51.2542C31.37 51.1283 31.9323 51.0253 32.481 50.8637C32.7563 50.787 33.035 50.7199 33.3084 50.6346L34.1269 50.37C33.7136 50.4976 33.2787 50.6666 32.8142 50.7906L32.2323 50.9612C33.4535 50.6366 34.6488 50.2216 35.8081 49.7198C36.3385 49.4891 36.8605 49.24 37.3734 48.9729C36.4125 49.481 35.4215 49.9302 34.4058 50.3181C32.469 51.0387 30.4562 51.5372 28.4063 51.8042C28.0989 51.8528 27.8186 51.868 27.5673 51.8942L26.8948 51.9605C26.499 51.9917 26.2068 52.0057 26.0024 52.0281C25.5933 52.0687 25.5351 52.1065 25.698 52.1377C25.8606 52.1689 26.2439 52.1938 26.7153 52.207C27.1854 52.2043 27.743 52.1791 28.2501 52.133C33.3458 51.612 38.0243 49.6185 41.7735 46.634C45.5252 43.6489 48.3987 39.6837 50.0002 35.1844C50.1007 34.9232 50.178 34.6538 50.2616 34.3865C50.3428 34.1184 50.4325 33.853 50.5059 33.5824C50.6419 33.0385 50.8029 32.5009 50.907 31.9487L51.0785 31.1245L51.2134 30.2928L51.2801 29.8767L51.3277 29.4579L51.4225 28.6202C51.6158 26.3798 51.5394 24.1154 51.1976 21.8932C51.0148 20.6358 50.6935 19.1429 50.2794 17.8131L49.9608 16.8512C49.85 16.5455 49.7323 16.2572 49.6276 15.9861L49.4734 15.5954L49.3152 15.2445L49.0435 14.658C48.1754 12.9022 47.0847 11.2276 45.8078 9.67004C44.5323 8.11194 43.0667 6.66926 41.4145 5.41295L40.793 4.94273L40.1485 4.49874L39.8255 4.27619L39.4923 4.06745L38.8228 3.65108C37.9102 3.12536 36.9753 2.61869 35.9898 2.19845C35.0146 1.75722 33.9939 1.39911 32.9549 1.07882C32.4301 0.935239 31.9077 0.775094 31.3695 0.664925C31.1014 0.607218 30.8355 0.537085 30.5643 0.488766L29.7489 0.344912C27.7989 0.00280881 25.7706 -0.0786442 23.7442 0.0732174C21.7189 0.229221 19.685 0.612464 17.7347 1.27403L17.0049 1.52612C16.7609 1.60812 16.5257 1.71443 16.2856 1.80748C16.0479 1.9066 15.805 1.9933 15.5718 2.10264L14.8705 2.42652C14.6345 2.53034 14.4065 2.64962 14.1791 2.77028L13.4952 3.1284L12.8299 3.51827C12.6083 3.64859 12.3851 3.77588 12.1729 3.92084L11.5292 4.34274C11.3126 4.47996 11.1121 4.64039 10.903 4.78783C10.6977 4.9408 10.4847 5.08327 10.2864 5.24452L9.68895 5.72413C9.48703 5.88013 9.29646 6.04939 9.10645 6.21892L8.53504 6.7242L7.98911 7.25406C7.80741 7.4305 7.62377 7.605 7.45453 7.79276C6.06103 9.2556 4.83677 10.8515 3.83548 12.5402C2.85359 14.1968 2.04897 15.9517 1.43487 17.7759C0.223068 21.3432 -0.124546 24.9611 0.0372122 28.2289C0.00231242 26.8837 -0.00350421 24.9545 0.24578 23.0504ZM39.3369 48.0236C40.1786 47.4813 40.9891 46.8924 41.7646 46.2596C40.978 46.9054 40.1698 47.5018 39.3369 48.0236ZM50.4763 33.0357C50.3935 33.2845 50.3234 33.5303 50.232 33.765L49.9669 34.4616L49.8379 34.8062L49.6958 35.1461C49.6009 35.3751 49.5088 35.6053 49.4196 35.8366C48.9068 37.11 48.2968 38.3423 47.5951 39.5227C46.8969 40.7031 46.0875 41.8092 45.2228 42.8471C44.7957 43.3714 44.3303 43.8577 43.8728 44.3439L43.1579 45.0405C42.9233 45.2747 42.6665 45.4834 42.4233 45.7043C42.2195 45.881 42.0139 46.0539 41.807 46.224C42.5755 45.5947 43.3058 44.9206 43.9941 44.205C42.9982 45.234 41.915 46.1752 40.7564 47.018C40.4695 47.2174 40.1922 47.4311 39.8942 47.6189L38.9948 48.1901L38.0448 48.7283C37.7215 48.9072 37.3803 49.0662 37.0382 49.2405C37.2832 49.0966 37.5312 48.9577 37.7819 48.8241C38.0647 48.6675 38.3614 48.4825 38.6511 48.3133C38.943 48.1473 39.2084 47.9651 39.4289 47.8127C39.6493 47.6603 39.8222 47.5338 39.9122 47.4521C39.7837 47.5391 39.6529 47.6225 39.5228 47.7072C39.6628 47.6152 39.802 47.5217 39.9402 47.427C39.9343 47.4333 39.9222 47.4433 39.9122 47.4521C42.9402 45.3906 45.5197 42.6817 47.4525 39.5934C49.3939 36.5078 50.6572 33.0272 51.1807 29.4874C51.0671 30.9072 50.8062 32.0409 50.4763 33.0357ZM46.2933 11.4852C47.1269 12.7402 47.8473 14.0663 48.4463 15.448C48.5155 15.5995 48.5809 15.7533 48.6455 15.9074C50.0201 19.2633 50.6455 22.8632 50.5539 26.4096C50.5771 25.2361 50.499 24.0632 50.3686 22.9002C50.2209 21.56 49.9481 20.2357 49.5864 18.9405C48.8767 16.3431 47.7242 13.8813 46.2612 11.6371C46.3955 11.8221 46.5371 12.0225 46.6836 12.2351C46.8405 12.4552 46.9874 12.6821 47.124 12.9152L46.9473 12.609L46.7564 12.3111L46.3747 11.7158C46.1149 11.3226 45.8332 10.9437 45.5621 10.5583C45.2679 10.19 44.989 9.80948 44.6829 9.45081C44.4514 9.18767 44.2295 8.9157 43.9946 8.65588C44.8234 9.52702 45.6014 10.4617 46.2933 11.4852ZM26.8358 0.318129C27.2422 0.339665 27.6493 0.379149 28.0565 0.409522C28.39 0.437409 28.7218 0.486557 29.0503 0.523556C29.1489 0.527698 29.2531 0.534324 29.3838 0.548958C29.5143 0.566906 29.6702 0.600315 29.8738 0.646702C31.3886 0.898516 32.7707 1.27707 33.7518 1.66804C35.6347 2.37848 37.3867 3.26231 38.9757 4.2831C40.5653 5.30195 41.9918 6.46079 43.1986 7.72649C43.7548 8.32814 43.5925 8.19698 43.2858 7.90486L43.7462 8.39192C43.5423 8.18925 43.3421 7.98383 43.1352 7.78558L42.4978 7.2085C42.6529 7.3438 43.0291 7.66768 43.2858 7.90486C41.2392 5.82325 38.8469 4.09479 36.2574 2.82329C33.666 1.55235 30.8754 0.767363 28.0859 0.453976C28.534 0.503676 28.7539 0.51472 28.9633 0.520243C28.6628 0.485176 28.3615 0.437133 28.0565 0.409522C27.6468 0.382739 27.238 0.346292 26.8314 0.326412L25.6238 0.297972C26.0237 0.297696 26.4289 0.308741 26.8358 0.318129Z" fill="#FD026F"/>
<path d="M32.1156 50.9952L32.2335 50.9607C32.11 50.9938 31.9884 51.0303 31.8641 51.0618C31.9483 51.0408 32.0327 51.0203 32.1156 50.9952ZM44.4363 40.3541C45.6093 38.8115 46.6458 36.9682 47.3075 35.3802L47.2995 35.3819C45.6207 39.3364 42.8977 42.7431 39.4996 45.2513C40.103 44.8332 40.6957 44.4003 41.2773 43.9527C42.0246 43.1741 43.2752 41.9078 44.4363 40.3541ZM9.79297 44.9638C11.7795 46.7343 14.1751 48.275 16.8416 49.3129C17.8814 49.703 18.9425 50.0448 20.0278 50.2856C20.5662 50.4242 21.116 50.5098 21.6617 50.6117C21.9351 50.66 22.212 50.6868 22.4868 50.7255C22.7621 50.7611 23.0369 50.8014 23.3142 50.8174C22.0625 50.6791 20.8199 50.472 19.6103 50.1437C18.4016 49.8165 17.2167 49.412 16.0736 48.9153C14.9364 48.4106 13.8356 47.8281 12.7791 47.1719C11.7305 46.507 10.7361 45.7645 9.79297 44.9638ZM34.3134 48.1201L33.6988 48.3606L33.0711 48.5693C32.6557 48.7184 32.2272 48.8299 31.7998 48.9484C32.2294 48.8407 32.6615 48.7402 33.0806 48.6021L33.7129 48.4094L34.3306 48.1844C34.3068 48.1722 34.1661 48.1996 34.3134 48.1201ZM27.0581 49.6906C26.7368 49.7179 26.4139 49.7154 26.0904 49.7187C25.7668 49.7226 25.4428 49.7295 25.1184 49.7083L25.5549 49.7491C25.6884 49.7577 25.8087 49.7679 25.9136 49.7803C26.2962 49.7477 26.6759 49.7386 27.0581 49.6906ZM14.2499 46.7207C14.6213 46.938 15.0158 47.1294 15.4071 47.3403C15.5052 47.3939 15.683 47.4549 15.906 47.5361C15.4293 47.332 14.9725 47.0791 14.5083 46.8444C14.2784 46.7227 14.0571 46.5863 13.8317 46.4592C13.6067 46.3311 13.3827 46.2033 13.1699 46.0603L13.4295 46.2331L13.7001 46.3944L14.2499 46.7207Z" fill="#FD026F"/>
<path d="M42.239 15.5116C42.2916 15.6165 42.2916 15.7213 42.2127 15.7999C42.1602 15.8786 42.055 15.9572 41.9498 16.0097C41.7394 16.0883 41.5028 16.0621 41.2135 15.8786C41.082 15.8262 40.9768 15.7737 40.8717 15.7213C40.8717 15.7213 40.8454 15.7213 40.8454 15.6951L13.9448 15.2495C14.5233 15.3805 15.1281 15.5116 15.7329 15.6951C17.5999 16.1931 19.2039 16.796 20.5713 17.4514C22.3068 18.2902 23.5953 19.2339 24.4368 20.3086C25.0153 21.0164 25.3834 21.7503 25.5412 22.5629C27.0401 19.129 28.2234 16.4553 28.3549 16.2194C28.3549 16.2194 28.5652 15.9048 28.8282 16.0097C29.1174 16.1145 29.0386 16.5339 29.0386 16.5339C28.276 18.1853 26.9875 20.9902 25.6201 24.0833C25.6201 24.1095 25.6201 24.1095 25.5938 24.1357C23.2009 29.5094 21.4917 33.7297 20.7817 36.8229C20.7554 36.8229 20.7554 36.7967 20.7554 36.7967C20.7554 36.7967 20.6502 37.3472 20.3346 37.3996C19.9928 37.452 19.7035 36.9802 19.7035 36.9802C19.5721 36.4035 22.149 30.2696 24.9627 23.8474C25.0416 22.7202 24.6997 21.6717 23.9372 20.7018C22.5172 18.9455 19.6246 17.4252 15.5751 16.3242C12.4722 15.4854 9.79002 15.1708 9.76372 15.1708C9.76372 15.1708 9.47447 15.2233 9.42188 14.9087C9.42188 14.5941 9.71113 14.5417 9.79002 14.5155L40.898 15.0398C41.1872 15.0398 41.4502 15.066 41.6868 15.1184C41.9761 15.1708 42.1865 15.3019 42.239 15.5116ZM35.2529 16.9795C35.5685 17.0844 35.4896 17.53 35.4896 17.53C34.1485 20.4397 32.9652 22.9299 31.9922 25.5775C32.2289 25.5512 32.5181 25.525 32.7548 25.525H32.8337C33.0704 25.525 33.4122 25.5512 33.4911 25.7609L33.5174 25.8396L33.4911 25.9182C33.3859 26.3376 32.1763 26.5211 31.7556 26.5998L31.7293 26.7308H31.5715C31.0193 28.2774 30.546 29.9026 30.1252 31.7113C30.1252 31.6851 30.1252 31.6851 30.0989 31.6851C30.0989 31.6851 29.9937 32.288 29.6256 32.3404C29.2575 32.4191 28.9419 31.8686 28.9419 31.8686C28.8367 31.423 29.6519 29.1949 30.6248 26.757C30.02 26.8357 29.3889 26.9143 28.7578 26.9668C28.6001 26.993 28.4686 26.993 28.3108 26.993C27.8901 26.993 27.4956 26.8619 27.4956 26.5211C27.4956 26.4163 27.5482 26.3114 27.6271 26.1541C28.2582 24.9483 28.863 23.7163 29.3889 22.4843L29.4415 22.4057C29.9412 21.1736 30.4145 19.9678 30.8878 18.7358C31.0456 18.3164 31.2034 17.8708 31.3348 17.4514C31.5189 17.0058 31.703 16.4553 31.9396 16.0359L32.0448 15.9048C32.2026 15.6951 32.413 15.564 32.5707 15.564C32.7285 15.564 32.8863 15.7213 32.9126 16.0621V16.1145C32.9126 16.9009 32.0185 18.395 31.703 19.0766L31.3348 19.9154C31.3085 19.9416 31.3085 19.9678 31.3085 20.0203C30.8615 21.0688 30.4145 22.1435 29.9412 23.1921C29.6782 23.8212 29.3889 24.4503 29.0997 25.0532C28.9682 25.394 28.8104 25.7347 28.6527 26.0231C29.1523 25.9969 29.6519 25.9182 30.1515 25.8396C30.4145 25.8134 30.7037 25.7609 30.993 25.7085L31.0719 25.6561C31.2296 25.2891 31.3874 24.8959 31.5452 24.5289C32.7548 21.6717 34.7007 17.2417 34.727 17.1892C34.727 17.1892 34.9637 16.8485 35.2529 16.9795Z" fill="#3977FC"/>
<path d="M59.2714 34.047V34.4904H58.3817V37.5499H57.8921V34.4904H57V34.047H59.2714ZM62.7546 34.047H63.2491V37.5499H62.7546V36.014H61.0275V37.5499H60.528V34.047H61.0275V35.5754H62.7546V34.047ZM66.8191 34.4904H65.4126V35.5804H66.6526V36.0213H65.4126V37.1039H66.8191V37.5498H64.9081V34.0469H66.8191V34.4904ZM70.776 37.5499L69.7844 34.047H70.2988L71.109 36.8957L71.9688 34.047H72.4012L73.261 36.8957L74.0737 34.047H74.5856L73.594 37.5499H73.0001L72.185 34.9439L71.3699 37.5499H70.776ZM77.3853 37.597C76.3888 37.597 75.6284 36.9133 75.6284 35.796C75.6284 34.6813 76.3888 34 77.3853 34C78.3769 34 79.1398 34.6812 79.1398 35.796C79.1398 36.9133 78.3769 37.597 77.3853 37.597ZM77.3853 37.1337C78.0886 37.1337 78.6453 36.6482 78.6453 35.796C78.6453 34.9513 78.0886 34.4658 77.3853 34.4658C76.6796 34.4658 76.1204 34.9513 76.1204 35.796C76.1204 36.6482 76.6796 37.1337 77.3853 37.1337ZM82.449 37.5499L81.5394 35.9744H81.0474V37.5499H80.5529V34.047H81.7357C82.4713 34.047 82.8068 34.4954 82.8068 35.0453C82.8068 35.5333 82.5186 35.8727 82.0365 35.9544L83.028 37.5498L82.449 37.5499ZM81.0474 34.4731V35.5978H81.6687C82.1259 35.5978 82.3322 35.3699 82.3322 35.038C82.3322 34.711 82.1259 34.4731 81.6687 34.4731H81.0474ZM84.8312 37.104H86.0315V37.5499H84.3367V34.047H84.8312V37.104ZM87.2905 37.5499V34.047H88.4486C89.5295 34.047 90.0788 34.7703 90.0788 35.7959C90.0788 36.8289 89.5296 37.5498 88.4486 37.5498L87.2905 37.5499ZM87.785 37.104H88.4287C89.1966 37.104 89.5619 36.5962 89.5619 35.796C89.5619 35.0008 89.1966 34.4905 88.4287 34.4905H87.785V37.104ZM95.6881 37.5499L95.3949 36.7324H93.8243L93.5311 37.5499H93.0167L94.3114 34.047H94.9079L96.2026 37.5499H95.6881ZM93.9784 36.3014H95.2408L94.6096 34.5351L93.9784 36.3014ZM99.3328 34.047V34.4904H98.4432V37.5499H97.9536V34.4904H97.0615V34.047H99.3328ZM104.878 34.047L103.722 35.8801V37.5498H103.223V35.8826L102.064 34.047H102.626L103.471 35.4367L104.318 34.047H104.878ZM107.613 37.597C106.616 37.597 105.856 36.9133 105.856 35.796C105.856 34.6813 106.616 34 107.613 34C108.604 34 109.367 34.6812 109.367 35.796C109.367 36.9133 108.604 37.597 107.613 37.597ZM107.613 37.1337C108.316 37.1337 108.873 36.6482 108.873 35.796C108.873 34.9513 108.316 34.4658 107.613 34.4658C106.907 34.4658 106.348 34.9513 106.348 35.796C106.348 36.6482 106.907 37.1337 107.613 37.1337ZM112 37.597C111.272 37.597 110.708 37.1684 110.708 36.3782V34.0471H111.203V36.3088C111.203 36.886 111.551 37.1511 112 37.1511C112.45 37.1511 112.806 36.8835 112.806 36.3088V34.0471H113.3V36.3782C113.3 37.1684 112.734 37.597 112 37.597ZM116.781 37.5499L115.871 35.9744H115.379V37.5499H114.885V34.047H116.068C116.803 34.047 117.139 34.4954 117.139 35.0453C117.139 35.5333 116.85 35.8727 116.368 35.9544L117.36 37.5498L116.781 37.5499ZM115.379 34.4731V35.5978H116.001C116.458 35.5978 116.664 35.3699 116.664 35.038C116.664 34.711 116.458 34.4731 116.001 34.4731H115.379ZM122.51 34.4904H121.083V35.5779H122.323V36.0213H121.083V37.5498H120.579V34.0468H122.51V34.4904ZM123.826 37.5499V34.047H124.32V37.5499H123.826ZM128.347 34.047H128.84V37.5499H128.305L126.469 34.7704V37.5499H125.979V34.047H126.509L128.348 36.814L128.347 34.047ZM131.992 37.597C131.008 37.597 130.253 36.9256 130.253 35.8084C130.253 34.6812 131.013 34 132.01 34C132.656 34 133.21 34.2824 133.513 34.8175L133.076 35.0504C132.855 34.6391 132.459 34.4484 132.01 34.4484C131.299 34.4484 130.75 34.929 130.75 35.7985C130.75 36.6556 131.286 37.1536 132.027 37.1536C132.623 37.1536 133.091 36.8191 133.173 36.1553H132.025V35.744H133.652V37.5499H133.25V36.9207C133.019 37.3493 132.584 37.597 131.992 37.597ZM137.051 34.4904H135.644V35.5804H136.884V36.0213H135.644V37.1039H137.051V37.5498H135.14V34.0469H137.051V34.4904ZM140.372 37.5499L139.463 35.9744H138.971V37.5499H138.476V34.047H139.659C140.395 34.047 140.73 34.4954 140.73 35.0453C140.73 35.5333 140.442 35.8727 139.96 35.9544L140.952 37.5498L140.372 37.5499ZM138.971 34.4731V35.5978H139.592C140.049 35.5978 140.256 35.3699 140.256 35.038C140.256 34.711 140.049 34.4731 139.592 34.4731H138.971ZM146.042 34.047V34.4904H145.152V37.5499H144.662V34.4904H143.77V34.047H146.042ZM147.298 37.5499V34.047H147.793V37.5499H147.298ZM150.806 34.047C151.45 34.047 151.865 34.5325 151.865 35.132C151.865 35.7389 151.45 36.2071 150.806 36.2071H149.946V37.5498H149.452V34.0469L150.806 34.047ZM150.731 35.7811C151.144 35.7811 151.375 35.5161 151.375 35.1247C151.375 34.7481 151.144 34.4707 150.731 34.4707H149.946V35.7811H150.731ZM154.307 37.597C153.573 37.597 153.037 37.2477 152.917 36.6531L153.422 36.5342C153.501 36.943 153.857 37.1783 154.324 37.1783C154.699 37.1783 155.06 37.0247 155.052 36.6036C155.047 36.1874 154.595 36.0735 154.115 35.9422C153.571 35.7936 153.027 35.6226 153.027 34.9785C153.027 34.327 153.566 34 154.205 34C154.823 34 155.38 34.2602 155.512 34.8621L155.032 34.9835C154.945 34.5946 154.62 34.4212 154.227 34.4212C153.874 34.4212 153.524 34.5748 153.524 34.9736C153.524 35.3353 153.916 35.4418 154.361 35.5607C154.92 35.7118 155.562 35.8852 155.562 36.5888C155.562 37.2973 154.965 37.597 154.307 37.597Z" fill="#3977FC"/>
</svg>
